<svg xmlns="http://www.w3.org/2000/svg" width="152" height="48" fill="none"><circle cx="21.5" cy="24" r="21.5" fill="#1D37AF"/><path fill="#BBF41C" d="M20.105 31.01c1.76 0 3.036-.53 3.827-1.59.806-1.074 1.238-2.947 1.298-5.617v-.269c0-2.685-.418-4.61-1.253-5.774-.821-1.164-2.149-1.745-3.984-1.745-3.208 0-4.812 2.536-4.812 7.609 0 2.462.396 4.312 1.186 5.55.806 1.224 2.052 1.835 3.738 1.835Zm-2.082 5.438c-3.058 0-5.46-1.134-7.206-3.402-1.73-2.268-2.596-5.424-2.596-9.467 0-4.148.903-7.356 2.708-9.623 1.82-2.268 4.357-3.402 7.61-3.402 1.76 0 3.207.313 4.34.94 1.15.626 2.097 1.566 2.843 2.82h.336c.358-1.403.858-2.514 1.5-3.335h5.64c-.478 1.447-.866 3.11-1.165 4.99-.283 1.866-.425 3.574-.425 5.126v6.982c0 1.761.627 2.641 1.88 2.641.478 0 .918-.074 1.32-.224v5.372c-.238.149-.7.283-1.387.403-.671.119-1.23.179-1.678.179-1.672 0-2.947-.284-3.827-.85-.88-.583-1.575-1.545-2.082-2.888h-.47c-1.641 2.492-4.088 3.738-7.34 3.738Z"/><path fill="#1D37AF" d="M59.92 37.44c-1.52 0-2.867-.28-4.04-.84-1.147-.56-2.053-1.32-2.72-2.28-.64-.987-.96-2.107-.96-3.36 0-1.413.373-2.533 1.12-3.36.747-.853 1.947-1.453 3.6-1.8 1.653-.373 3.853-.56 6.6-.56h1.52v-.56c0-.96-.253-1.64-.76-2.04-.48-.4-1.32-.6-2.52-.6-1.013 0-2.133.16-3.36.48-1.227.32-2.427.813-3.6 1.48L53 19.32c.667-.48 1.52-.907 2.56-1.28a18.475 18.475 0 0 1 3.28-.84 17.757 17.757 0 0 1 3.24-.32c3.28 0 5.707.707 7.28 2.12 1.6 1.413 2.4 3.64 2.4 6.68V37h-6.64v-2.8a4.533 4.533 0 0 1-1.88 2.4c-.907.56-2.013.84-3.32.84Zm1.6-4.64c.987 0 1.813-.32 2.48-.96.693-.64 1.04-1.48 1.04-2.52v-.72h-1.52c-1.573 0-2.733.173-3.48.52-.72.32-1.08.84-1.08 1.56 0 .613.213 1.12.64 1.52.453.4 1.093.6 1.92.6Zm20.054 4.64c-2.72 0-4.693-.68-5.92-2.04-1.226-1.387-1.84-3.467-1.84-6.24V8.8h7.12v20.12c0 1.867.854 2.8 2.56 2.8.267 0 .534-.013.8-.04.294-.027.574-.067.84-.12l-.08 5.44c-1.066.293-2.226.44-3.48.44Zm4.147 6.76V17.32h6.92V20c.533-.96 1.346-1.72 2.44-2.28 1.093-.56 2.293-.84 3.6-.84 1.68 0 3.16.413 4.44 1.24 1.306.827 2.32 2.013 3.04 3.56.746 1.52 1.12 3.347 1.12 5.48 0 2.107-.36 3.933-1.08 5.48-.72 1.547-1.734 2.733-3.04 3.56-1.28.827-2.774 1.24-4.48 1.24a7.915 7.915 0 0 1-3.44-.76c-1.04-.507-1.84-1.187-2.4-2.04v9.56h-7.12Zm10.72-12c1.066 0 1.946-.4 2.64-1.2.693-.8 1.04-2.08 1.04-3.84 0-1.787-.347-3.067-1.04-3.84-.694-.8-1.574-1.2-2.64-1.2-1.094 0-1.987.4-2.68 1.2-.694.773-1.04 2.053-1.04 3.84 0 1.76.346 3.04 1.04 3.84.693.8 1.586 1.2 2.68 1.2Zm12.084 4.8V8.8h7.12v10.96c1.414-1.92 3.467-2.88 6.16-2.88 2.347 0 4.08.693 5.2 2.08 1.147 1.387 1.72 3.52 1.72 6.4V37h-7.12V25.64c0-1.2-.213-2.053-.64-2.56-.4-.507-1-.76-1.8-.76-1.066 0-1.92.347-2.56 1.04-.64.667-.96 1.573-.96 2.72V37h-7.12Zm29.098.44c-1.52 0-2.867-.28-4.04-.84-1.147-.56-2.053-1.32-2.72-2.28-.64-.987-.96-2.107-.96-3.36 0-1.413.373-2.533 1.12-3.36.747-.853 1.947-1.453 3.6-1.8 1.653-.373 3.853-.56 6.6-.56h1.52v-.56c0-.96-.253-1.64-.76-2.04-.48-.4-1.32-.6-2.52-.6-1.013 0-2.133.16-3.36.48-1.227.32-2.427.813-3.6 1.48l-1.8-4.68c.667-.48 1.52-.907 2.56-1.28a18.469 18.469 0 0 1 3.28-.84 17.762 17.762 0 0 1 3.24-.32c3.28 0 5.707.707 7.28 2.12 1.6 1.413 2.4 3.64 2.4 6.68V37h-6.64v-2.8a4.533 4.533 0 0 1-1.88 2.4c-.907.56-2.013.84-3.32.84Zm1.6-4.64c.987 0 1.813-.32 2.48-.96.693-.64 1.04-1.48 1.04-2.52v-.72h-1.52c-1.573 0-2.733.173-3.48.52-.72.32-1.08.84-1.08 1.56 0 .613.213 1.12.64 1.52.453.4 1.093.6 1.92.6Z"/></svg>